<?xml version="1.0" encoding="utf-8"?>
<!-- Generator: Adobe Illustrator 23.1.1, SVG Export Plug-In . SVG Version: 6.00 Build 0)  -->
<svg version="1.1" id="icon-inst-s" xmlns="http://www.w3.org/2000/svg" xmlns:xlink="http://www.w3.org/1999/xlink" x="0px"
	 y="0px" viewBox="0 0 510 1536" style="enable-background:new 0 0 510 1536;" xml:space="preserve">
<style type="text/css">
	.st0{display:none;}
	.st1{display:inline;}
	.st2{opacity:0.5;fill:#9FC6CF;enable-background:new    ;}
	.st3{fill:#007088;}
	.st4{fill:#F8F8FA;}
	.st5{fill:#FFFFFF;}
</style>
<g class="st0">
	<g id="post-instagram" class="st1">
		<path class="st2" d="M459-1505.3H51c-28,0-51,23-51,51v408c0,28,23,51,51,51h408c28,0,51-23,51-51v-408
			C510-1482.3,487-1505.3,459-1505.3z M255-1352.3c56.1,0,102,45.9,102,102c0,56.1-45.9,102-102,102s-102-45.9-102-102
			C153-1306.4,198.9-1352.3,255-1352.3z M63.8-1046.3c-7.7,0-12.8-5.1-12.8-12.8v-216.7h53.6c-2.6,7.6-2.6,17.9-2.6,25.5
			c0,84.1,68.9,153,153,153s153-68.9,153-153c0-7.6,0-17.9-2.5-25.5H459v216.8c0,7.6-5.1,12.8-12.8,12.8L63.8-1046.3L63.8-1046.3z
			 M459-1390.5c0,7.7-5.1,12.8-12.8,12.8h-51c-7.6,0-12.8-5.1-12.8-12.8v-51c0-7.7,5.1-12.8,12.8-12.8h51c7.6,0,12.8,5.1,12.8,12.8
			V-1390.5z"/>
	</g>
</g>
<g class="st0">
	<g class="st1">
		<path class="st3" d="M459-995.3H51c-28,0-51,23-51,51v408c0,28,23,51,51,51h408c28,0,51-23,51-51v-408
			C510-972.3,487-995.3,459-995.3z M255-842.3c56.1,0,102,45.9,102,102s-45.9,102-102,102s-102-45.9-102-102S198.9-842.3,255-842.3z
			 M63.8-536.3c-7.7,0-12.8-5.1-12.8-12.8v-216.7h53.6c-2.6,7.7-2.6,17.8-2.6,25.5c0,84.2,68.9,153,153,153s153-68.8,153-153
			c0-7.7,0-17.8-2.5-25.5H459V-549c0,7.7-5.1,12.8-12.8,12.8L63.8-536.3L63.8-536.3z M459-880.5c0,7.7-5.1,12.8-12.8,12.8h-51
			c-7.6,0-12.8-5.1-12.8-12.8v-51c0-7.7,5.1-12.8,12.8-12.8h51c7.6,0,12.8,5.1,12.8,12.8V-880.5z"/>
	</g>
</g>
<g class="st0">
	<g class="st1">
		<path class="st4" d="M459-485.3H51c-28,0-51,22.9-51,51v408c0,28.1,23,51,51,51h408c28,0,51-22.9,51-51v-408
			C510-462.4,487-485.3,459-485.3z M255-332.3c56.1,0,102,45.9,102,102s-45.9,102-102,102s-102-45.9-102-102S198.9-332.3,255-332.3z
			 M63.8-26.3c-7.7,0-12.8-5.1-12.8-12.8v-216.8h53.6c-2.6,7.7-2.6,17.8-2.6,25.5c0,84.2,68.9,153,153,153s153-68.8,153-153
			c0-7.7,0-17.8-2.5-25.5H459v216.8c0,7.7-5.1,12.8-12.8,12.8H63.8z M459-370.5c0,7.7-5.1,12.8-12.8,12.8h-51
			c-7.6,0-12.8-5.1-12.8-12.8v-51c0-7.7,5.1-12.8,12.8-12.8h51c7.6,0,12.8,5.1,12.8,12.8V-370.5z"/>
	</g>
</g>
<g>
	<path class="st2" d="M75.8,0h358.4C476.6,0,511,34.4,511,76.8v358.4c0,42.4-34.4,76.8-76.8,76.8H75.8C33.4,512-1,477.6-1,435.2
		V76.8C-1,34.4,33.4,0,75.8,0z"/>
	<path class="st5" d="M198,404c-11,0-10-4-13-14l-32-105l245-144"/>
	<path class="st5" d="M198,404c7,0,11-4,16-8l45-43l-56-34"/>
	<path class="st5" d="M203,319l135,99c14,9,26,4,30-14l55-258c5-22-9-32-24-25L78,245c-21,8-21,21-4,26l83,26l190-121c9-5,17-3,11,4
		"/>
	<path class="st3" d="M75.8,512h358.4c42.4,0,76.8,34.4,76.8,76.8v358.4c0,42.4-34.4,76.8-76.8,76.8H75.8C33.4,1024-1,989.6-1,947.2
		V588.8C-1,546.4,33.4,512,75.8,512z"/>
	<path class="st5" d="M198,916c-11,0-10-4-13-14l-32-105l245-144"/>
	<path class="st5" d="M198,916c7,0,11-4,16-8l45-43l-56-34"/>
	<path class="st5" d="M203,831l135,99c14,9,26,4,30-14l55-258c5-22-9-32-24-25L78,757c-21,8-21,21-4,26l83,26l190-121c9-5,17-3,11,4
		"/>
	<path class="st4" d="M75.8,1024h358.4c42.4,0,76.8,34.4,76.8,76.8v358.4c0,42.4-34.4,76.8-76.8,76.8H75.8
		c-42.4,0-76.8-34.4-76.8-76.8v-358.4C-1,1058.4,33.4,1024,75.8,1024z"/>
	<path class="st5" d="M198,1428c-11,0-10-4-13-14l-32-105l245-144"/>
	<path class="st5" d="M198,1428c7,0,11-4,16-8l45-43l-56-34"/>
	<path class="st5" d="M203,1343l135,99c14,9,26,4,30-14l55-258c5-22-9-32-24-25L78,1269c-21,8-21,21-4,26l83,26l190-121
		c9-5,17-3,11,4"/>
</g>
</svg>
