<svg width="20" height="25" viewBox="0 0 20 25" fill="none" xmlns="http://www.w3.org/2000/svg"><g clip-path="url(#prefix__clip0_19_2)"><path d="M10 17.5c2.125-1.917 3.49-3.266 4.094-4.047.604-.781.906-1.557.906-2.328 0-.75-.27-1.396-.813-1.938-.541-.541-1.187-.812-1.937-.812-.438 0-.86.089-1.266.266-.383.16-.721.412-.984.734a2.549 2.549 0 00-.969-.734 3.101 3.101 0 00-1.281-.266c-.75 0-1.396.27-1.938.813C5.271 9.729 5 10.374 5 11.124c0 .396.052.76.156 1.094.104.333.334.724.688 1.172.354.447.86.994 1.515 1.64.864.84 1.744 1.664 2.641 2.47zm0 7.5c-2.896-.73-5.286-2.39-7.172-4.984C.943 17.422 0 14.542 0 11.375V3.75L10 0l10 3.75v7.625c0 3.167-.943 6.047-2.828 8.64C15.286 22.61 12.896 24.272 10 25zm0-1.5c2.167-.688 5.083-2.938 6.5-5 1.417-2.063 2-4.604 2-7.125V4.5l-8.5-3-8.5 3v7c0 2.52 1.083 5.438 2.5 7.5 1.417 2.063 3.833 3.813 6 4.5z" fill="#F6AE9C"/></g><defs><clipPath id="prefix__clip0_19_2"><path fill="#fff" d="M0 0h20v25H0z"/></clipPath></defs></svg>