<svg width="20" height="25" viewBox="0 0 20 25" fill="none" xmlns="http://www.w3.org/2000/svg"><g clip-path="url(#prefix__clip0_19_5)"><path d="M10 25c-2.854 0-5.234-.98-7.14-2.938C.952 20.105 0 17.668 0 14.75c0-2.083.828-4.349 2.484-6.797C4.141 5.505 6.646 2.854 10 0c3.354 2.854 5.86 5.505 7.516 7.953C19.172 10.401 20 12.667 20 14.75c0 2.917-.953 5.354-2.86 7.313C15.235 24.02 12.855 25 10 25zm0-1.5c2.167 0 4.583-1.531 6-3 1.417-1.469 2.5-3.521 2.5-5.75 0-1.52-.74-3.834-2-5.75-1.261-1.917-4.02-4.729-6.5-7-2.48 2.27-5.239 5.084-6.5 7-1.26 1.917-2 4.23-2 5.75 0 2.23 1.083 4.281 2.5 5.75 1.417 1.469 3.833 3 6 3zM6.25 20h7.5v-2h-7.5v2zM9 16h2v-2.612h2.654V11.5H11V9H9v2.5H6.25v1.888H9V16z" fill="#F6AE9C"/></g><defs><clipPath id="prefix__clip0_19_5"><path fill="#fff" d="M0 0h20v25H0z"/></clipPath></defs></svg>