<svg xmlns="http://www.w3.org/2000/svg" width="30" height="30" viewBox="0 0 30 30" fill="none"><path d="M16.1565 3.75C17.4221 3.75337 18.0644 3.76012 18.619 3.77587L18.8373 3.78375C19.0892 3.79275 19.3378 3.804 19.6382 3.8175C20.8351 3.87375 21.6519 4.06274 22.3684 4.34061C23.1109 4.62635 23.7364 5.01335 24.3618 5.63771C24.9339 6.20008 25.3765 6.88034 25.6589 7.63116C25.9368 8.34777 26.1258 9.1645 26.182 10.3626C26.1955 10.6618 26.2067 10.9105 26.2157 11.1636L26.2225 11.3818C26.2394 11.9353 26.2461 12.5777 26.2484 13.8433L26.2495 14.6825V16.1562C26.2523 16.9768 26.2436 17.7973 26.2236 18.6177L26.2169 18.8359C26.2079 19.089 26.1966 19.3376 26.1831 19.6369C26.1269 20.835 25.9356 21.6506 25.6589 22.3683C25.3773 23.1195 24.9346 23.8 24.3618 24.3618C23.7993 24.9336 23.1191 25.3762 22.3684 25.6589C21.6519 25.9367 20.8351 26.1257 19.6382 26.182C19.3713 26.1945 19.1043 26.2058 18.8373 26.2157L18.619 26.2225C18.0644 26.2382 17.4221 26.2461 16.1565 26.2484L15.3173 26.2495H13.8448C13.0238 26.2523 12.2029 26.2437 11.3823 26.2236L11.164 26.2169C10.897 26.2067 10.63 26.1951 10.3631 26.182C9.16612 26.1257 8.34941 25.9367 7.6317 25.6589C6.88099 25.3769 6.20102 24.9342 5.63943 24.3618C5.06688 23.7996 4.62386 23.1193 4.34124 22.3683C4.06338 21.6517 3.87439 20.835 3.81815 19.6369C3.80561 19.3699 3.79436 19.1029 3.7844 18.8359L3.77877 18.6177C3.75804 17.7973 3.74867 16.9768 3.75065 16.1562V13.8433C3.74751 13.0227 3.75576 12.2021 3.7754 11.3818L3.78327 11.1636C3.79227 10.9105 3.80352 10.6618 3.81702 10.3626C3.87327 9.1645 4.06226 8.34889 4.34012 7.63116C4.62261 6.87957 5.06652 6.19909 5.64055 5.63771C6.202 5.06563 6.88153 4.62297 7.6317 4.34061C8.34941 4.06274 9.165 3.87375 10.3631 3.8175C10.6623 3.804 10.912 3.79275 11.164 3.78375L11.3823 3.777C12.2026 3.75701 13.0231 3.74839 13.8436 3.75112L16.1565 3.75ZM15.0001 9.37487C13.5083 9.37487 12.0776 9.96749 11.0228 11.0224C9.96796 12.0772 9.37536 13.5079 9.37536 14.9997C9.37536 16.4915 9.96796 17.9223 11.0228 18.9771C12.0776 20.032 13.5083 20.6246 15.0001 20.6246C16.4918 20.6246 17.9225 20.032 18.9773 18.9771C20.0322 17.9223 20.6248 16.4915 20.6248 14.9997C20.6248 13.5079 20.0322 12.0772 18.9773 11.0224C17.9225 9.96749 16.4918 9.37487 15.0001 9.37487ZM15.0001 11.6248C15.4433 11.6247 15.8821 11.712 16.2916 11.8815C16.7011 12.051 17.0732 12.2996 17.3866 12.6129C17.7 12.9262 17.9487 13.2983 18.1184 13.7077C18.288 14.1171 18.3754 14.556 18.3755 14.9992C18.3755 15.4424 18.2883 15.8813 18.1188 16.2907C17.9493 16.7002 17.7007 17.0723 17.3874 17.3858C17.0741 17.6992 16.7021 17.9479 16.2926 18.1175C15.8832 18.2872 15.4444 18.3746 15.0012 18.3747C14.1061 18.3747 13.2477 18.0191 12.6148 17.3862C11.9819 16.7532 11.6264 15.8948 11.6264 14.9997C11.6264 14.1047 11.9819 13.2462 12.6148 12.6133C13.2477 11.9804 14.105 11.6248 15.0001 11.6248ZM20.9071 7.68741C20.5342 7.68741 20.1765 7.83556 19.9128 8.09928C19.6491 8.363 19.501 8.72067 19.501 9.09363C19.501 9.46658 19.6491 9.82425 19.9128 10.088C20.1765 10.3517 20.5342 10.4998 20.9071 10.4998C21.2801 10.4998 21.6378 10.3517 21.9015 10.088C22.1652 9.82425 22.3133 9.46658 22.3133 9.09363C22.3133 8.72067 22.1652 8.363 21.9015 8.09928C21.6378 7.83556 21.2801 7.68741 20.9071 7.68741Z" fill="white"/><path fill-rule="evenodd" clip-rule="evenodd" d="M15.0001 9.37487C13.5083 9.37487 12.0776 9.96749 11.0228 11.0224C9.96796 12.0772 9.37536 13.5079 9.37536 14.9997C9.37536 16.4915 9.96796 17.9223 11.0228 18.9771C12.0776 20.032 13.5083 20.6246 15.0001 20.6246C16.4918 20.6246 17.9225 20.032 18.9773 18.9771C20.0322 17.9223 20.6248 16.4915 20.6248 14.9997C20.6248 13.5079 20.0322 12.0772 18.9773 11.0224C17.9225 9.96749 16.4918 9.37487 15.0001 9.37487ZM16.2916 11.8815C15.8821 11.712 15.4433 11.6247 15.0001 11.6248C14.105 11.6248 13.2477 11.9804 12.6148 12.6133C11.9819 13.2462 11.6264 14.1047 11.6264 14.9997C11.6264 15.8948 11.9819 16.7532 12.6148 17.3862C13.2477 18.0191 14.1061 18.3747 15.0012 18.3747C15.4444 18.3746 15.8832 18.2872 16.2926 18.1175C16.7021 17.9479 17.0741 17.6992 17.3874 17.3858C17.7007 17.0723 17.9493 16.7002 18.1188 16.2907C18.2883 15.8813 18.3755 15.4424 18.3755 14.9992C18.3754 14.556 18.288 14.1171 18.1184 13.7077C17.9487 13.2983 17.7 12.9262 17.3866 12.6129C17.0732 12.2996 16.7011 12.051 16.2916 11.8815Z" fill="white"/><path d="M20.9071 7.68741C20.5342 7.68741 20.1765 7.83556 19.9128 8.09928C19.6491 8.363 19.501 8.72067 19.501 9.09363C19.501 9.46658 19.6491 9.82425 19.9128 10.088C20.1765 10.3517 20.5342 10.4998 20.9071 10.4998C21.2801 10.4998 21.6378 10.3517 21.9015 10.088C22.1652 9.82425 22.3133 9.46658 22.3133 9.09363C22.3133 8.72067 22.1652 8.363 21.9015 8.09928C21.6378 7.83556 21.2801 7.68741 20.9071 7.68741Z" fill="white"/><path d="M8.42807 14.1659C12.0519 12.4725 14.4684 11.3561 15.6775 10.8166C19.1297 9.27652 19.8471 9.00898 20.3146 9.00009C20.4174 8.99823 20.6473 9.02556 20.7963 9.15516C20.9221 9.26463 20.9567 9.4125 20.9732 9.51625C20.9898 9.62005 21.0104 9.85645 20.994 10.0411C20.8069 12.1494 19.9975 17.2658 19.5856 19.6271C19.4114 20.6263 19.0683 20.9613 18.7361 20.9941C18.0142 21.0653 17.466 20.4824 16.7669 19.9907C15.6727 19.2215 15.0547 18.7426 13.9927 17.992C12.7654 17.1245 13.561 16.6478 14.2604 15.8685C14.4435 15.6646 17.6241 12.5615 17.6857 12.2801C17.6934 12.2448 17.7006 12.1136 17.6279 12.0443C17.5552 11.9751 17.4479 11.9987 17.3705 12.0175C17.2608 12.0443 15.5129 13.2834 12.127 15.7349C11.6309 16.1003 11.1816 16.2783 10.7789 16.2689C10.3351 16.2587 9.48133 15.9998 8.84663 15.7785C8.06814 15.507 7.44939 15.3636 7.50327 14.9026C7.53133 14.6625 7.83959 14.417 8.42807 14.1659Z" fill="#007088"/></svg>