<svg xmlns="http://www.w3.org/2000/svg" width="30" height="30" viewBox="0 0 30 30" fill="none"><path d="M5.325 5.325C3.75 6.915 3.75 9.4575 3.75 14.55V15.45C3.75 20.535 3.75 23.0775 5.325 24.675C6.915 26.25 9.4575 26.25 14.55 26.25H15.45C20.535 26.25 23.0775 26.25 24.675 24.675C26.25 23.085 26.25 20.5425 26.25 15.45V14.55C26.25 9.465 26.25 6.9225 24.675 5.325C23.085 3.75 20.5425 3.75 15.45 3.75H14.55C9.465 3.75 6.9225 3.75 5.325 5.325ZM7.545 10.5975H10.125C10.2075 14.8875 12.0975 16.7025 13.5975 17.0775V10.5975H16.02V14.295C17.4975 14.1375 19.0575 12.45 19.5825 10.59H21.9975C21.8007 11.5529 21.4073 12.4648 20.8421 13.2687C20.2769 14.0727 19.5519 14.7514 18.7125 15.2625C19.6493 15.7286 20.4766 16.388 21.1398 17.1973C21.803 18.0066 22.2871 18.9474 22.56 19.9575H19.8975C19.3275 18.18 17.9025 16.8 16.02 16.6125V19.9575H15.72C10.59 19.9575 7.665 16.4475 7.545 10.5975Z" fill="white"/></svg>