<svg xmlns="http://www.w3.org/2000/svg" width="30" height="30" viewBox="0 0 30 30" fill="none"><g clip-path="url(#clip0_1316_413)"><path d="M12 19.286L19.785 15.0002L12 10.7145V19.286ZM29.34 8.10024C29.535 8.77167 29.67 9.67167 29.76 10.8145C29.865 11.9574 29.91 12.9431 29.91 13.8002L30 15.0002C30 18.1288 29.76 20.4288 29.34 21.9002C28.965 23.186 28.095 24.0145 26.745 24.3717C26.04 24.5574 24.75 24.686 22.77 24.7717C20.82 24.8717 19.035 24.9145 17.385 24.9145L15 25.0002C8.715 25.0002 4.8 24.7717 3.255 24.3717C1.905 24.0145 1.035 23.186 0.66 21.9002C0.465 21.2288 0.33 20.3288 0.24 19.186C0.135 18.0431 0.0899999 17.0574 0.0899999 16.2002L0 15.0002C0 11.8717 0.24 9.57167 0.66 8.10024C1.035 6.81453 1.905 5.98596 3.255 5.62882C3.96 5.4431 5.25 5.31453 7.23 5.22882C9.18 5.12882 10.965 5.08596 12.615 5.08596L15 5.00024C21.285 5.00024 25.2 5.22882 26.745 5.62882C28.095 5.98596 28.965 6.81453 29.34 8.10024Z" fill="white"/></g><defs><clipPath id="clip0_1316_413"><rect width="30" height="30" fill="white"/></clipPath></defs></svg>