<svg width="60" height="60" fill="none" viewBox="0 0 60 60" xmlns="http://www.w3.org/2000/svg"><mask id="prefix__a" fill="#fff"><path d="M60 30c0 16.569-13.431 30-30 30C13.431 60 0 46.569 0 30 0 13.431 13.431 0 30 0c16.569 0 30 13.431 30 30z"/></mask><g clip-path="url(#prefix__prefix__paint0_angular_26_4477_clip_path)" data-figma-skip-parse="true" mask="url(#prefix__a)"><foreignObject x="-1266.67" y="-1266.67" width="2533.33" height="2533.33" transform="matrix(0 -.03 .03 0 30 30)"><div xmlns="http://www.w3.org/1999/xhtml" style="background:conic-gradient(from 90deg,#007088 0deg,rgba(0,112,136,0) 360deg);height:100%;width:100%" opacity="1"/></foreignObject></g><path d="M60 30h-8c0 12.15-9.85 22-22 22v16c20.987 0 38-17.013 38-38h-8zM30 60v-8C17.85 52 8 42.15 8 30H-8c0 20.987 17.013 38 38 38v-8zM0 30h8C8 17.85 17.85 8 30 8V-8C9.013-8-8 9.013-8 30h8zM30 0v8c12.15 0 22 9.85 22 22h16C68 9.013 50.987-8 30-8v8z" data-figma-gradient-fill="{&quot;type&quot;:&quot;GRADIENT_ANGULAR&quot;,&quot;stops&quot;:[{&quot;color&quot;:{&quot;r&quot;:0.0,&quot;g&quot;:0.43921568989753723,&quot;b&quot;:0.53333336114883423,&quot;a&quot;:1.0},&quot;position&quot;:0.0},{&quot;color&quot;:{&quot;r&quot;:0.0,&quot;g&quot;:0.43921568989753723,&quot;b&quot;:0.53333336114883423,&quot;a&quot;:0.0},&quot;position&quot;:1.0}],&quot;stopsVar&quot;:[{&quot;color&quot;:{&quot;r&quot;:0.0,&quot;g&quot;:0.43921568989753723,&quot;b&quot;:0.53333336114883423,&quot;a&quot;:1.0},&quot;position&quot;:0.0},{&quot;color&quot;:{&quot;r&quot;:0.0,&quot;g&quot;:0.43921568989753723,&quot;b&quot;:0.53333336114883423,&quot;a&quot;:0.0},&quot;position&quot;:1.0}],&quot;transform&quot;:{&quot;m00&quot;:-4.3202208303838585e-12,&quot;m01&quot;:60.0,&quot;m02&quot;:4.3202208303838585e-12,&quot;m10&quot;:-60.0,&quot;m11&quot;:7.4303792285679293e-12,&quot;m12&quot;:60.0},&quot;opacity&quot;:1.0,&quot;blendMode&quot;:&quot;NORMAL&quot;,&quot;visible&quot;:true}" mask="url(#prefix__a)"/><defs><clipPath id="prefix__prefix__paint0_angular_26_4477_clip_path"><path d="M60 30h-8c0 12.15-9.85 22-22 22v16c20.987 0 38-17.013 38-38h-8zM30 60v-8C17.85 52 8 42.15 8 30H-8c0 20.987 17.013 38 38 38v-8zM0 30h8C8 17.85 17.85 8 30 8V-8C9.013-8-8 9.013-8 30h8zM30 0v8c12.15 0 22 9.85 22 22h16C68 9.013 50.987-8 30-8v8z"/></clipPath></defs></svg>