<?xml version="1.0" encoding="utf-8"?>
<svg width="510" height="1530" viewBox="0 0 510 1530" xmlns="http://www.w3.org/2000/svg" xmlns:xlink="http://www.w3.org/1999/xlink">

  <style type="text/css">
	.st0{fill:#007088;}
	.st1{opacity:0.5;enable-background:new    ;}
	.st2{fill:#9FC6CF;}
	.st3{fill:#F6AE9C;}
	.st4{fill:#FFFFFF;}
	.st5{opacity:0.5;fill:#9FC6CF;enable-background:new    ;}
	.st6{fill:#F8F8FA;}
	.st7{opacity:0.7;}
	.st8{fill:none;}
	.st9{fill:#F5AD9C;}
</style>


  <svg id="icon-inst" xmlns="http://www.w3.org/2000/svg" x="0" y="0" width="510px" height="510px" viewBox="0 0 510 510" >
    <!--<defs>
      <style>.bacls-1{fill:#9ab6d2;opacity:.5;isolation:isolate}</style>
    </defs>-->
	<g>
		<g id="post-instagram">
			<path class="st5" d="M459,0H51C22.95,0,0,22.95,0,51v408c0,28.05,22.95,51,51,51h408c28.05,0,51-22.95,51-51V51C510,22.95,487.05,0,459,0z
				 M255,153c56.1,0,102,45.9,102,102c0,56.1-45.9,102-102,102c-56.1,0-102-45.9-102-102C153,198.9,198.9,153,255,153z M63.75,459
				C56.1,459,51,453.9,51,446.25V229.5h53.55C102,237.15,102,247.35,102,255c0,84.15,68.85,153,153,153c84.15,0,153-68.85,153-153
				c0-7.65,0-17.85-2.55-25.5H459v216.75c0,7.65-5.1,12.75-12.75,12.75H63.75z M459,114.75c0,7.65-5.1,12.75-12.75,12.75h-51
				c-7.65,0-12.75-5.1-12.75-12.75v-51c0-7.65,5.1-12.75,12.75-12.75h51C453.9,51,459,56.1,459,63.75V114.75z"/>
		</g>
	</g>
	
	<!--
    <g>
      <path class="bacls-1" d="M20,7c-0.551,0-1-0.449-1-1V4c0-0.551,0.449-1,1-1h2c0.551,0,1,0.449,1,1v2c0,0.551-0.449,1-1,1H20z"/>
      <path class="bacls-1" d="M13,9.188c-0.726,0-1.396,0.213-1.973,0.563c0.18-0.056,0.367-0.093,0.564-0.093 c1.068,0,1.933,0.865,1.933,1.934c0,1.066-0.865,1.933-1.933,1.933s-1.933-0.866-1.933-1.933c0-0.199,0.039-0.386,0.094-0.565 C9.4,11.604,9.188,12.274,9.188,13c0,2.107,1.705,3.813,3.813,3.813c2.105,0,3.813-1.705,3.813-3.813S15.105,9.188,13,9.188z"/>
      <g>
        <path class="bacls-1"  d="M13,7c3.313,0,6,2.686,6,6s-2.688,6-6,6c-3.313,0-6-2.686-6-6S9.687,7,13,7 M13,5	c-4.411,0-8,3.589-8,8s3.589,8,8,8s8-3.589,8-8S17.411,5,13,5L13,5z"/>
      </g>
      <path class="bacls-1"  d="M21.125,0H4.875C2.182,0,0,2.182,0,4.875v16.25C0,23.818,2.182,26,4.875,26h16.25 C23.818,26,26,23.818,26,21.125V4.875C26,2.182,23.818,0,21.125,0z M24,9h-6.537C18.416,10.063,19,11.461,19,13 c0,3.314-2.688,6-6,6c-3.313,0-6-2.686-6-6c0-1.539,0.584-2.938,1.537-4H2V4.875C2,3.29,3.29,2,4.875,2h16.25 C22.711,2,24,3.29,24,4.875V9z"/>
    </g>
	-->
	
  </svg>
  
  
  <svg id="icon-inst-hover" xmlns="http://www.w3.org/2000/svg" x="0" y="510" width="510px" height="510px" viewBox="0 0 510 510">
	<!--<defs>
      <style>.bbcls-1{fill:#9ab6d2}</style>
    </defs>-->
	<g>
		<g id="post-instagram">
			<path class="st0" d="M459,0H51C22.95,0,0,22.95,0,51v408c0,28.05,22.95,51,51,51h408c28.05,0,51-22.95,51-51V51C510,22.95,487.05,0,459,0z
				 M255,153c56.1,0,102,45.9,102,102c0,56.1-45.9,102-102,102c-56.1,0-102-45.9-102-102C153,198.9,198.9,153,255,153z M63.75,459
				C56.1,459,51,453.9,51,446.25V229.5h53.55C102,237.15,102,247.35,102,255c0,84.15,68.85,153,153,153c84.15,0,153-68.85,153-153
				c0-7.65,0-17.85-2.55-25.5H459v216.75c0,7.65-5.1,12.75-12.75,12.75H63.75z M459,114.75c0,7.65-5.1,12.75-12.75,12.75h-51
				c-7.65,0-12.75-5.1-12.75-12.75v-51c0-7.65,5.1-12.75,12.75-12.75h51C453.9,51,459,56.1,459,63.75V114.75z"/>
		</g>
	</g>

</svg>

  <!--
  <svg id="icon-inst-hover" xmlns="http://www.w3.org/2000/svg" x="0" y="25" width="16" height="15" viewBox="0 0 26 26" >
    <defs>
      <style>.bbcls-1{fill:#9ab6d2}</style>
    </defs>
    <g>
      <path class="bbcls-1" d="M20,7c-0.551,0-1-0.449-1-1V4c0-0.551,0.449-1,1-1h2c0.551,0,1,0.449,1,1v2c0,0.551-0.449,1-1,1H20z"/>
      <path class="bbcls-1" d="M13,9.188c-0.726,0-1.396,0.213-1.973,0.563c0.18-0.056,0.367-0.093,0.564-0.093 c1.068,0,1.933,0.865,1.933,1.934c0,1.066-0.865,1.933-1.933,1.933s-1.933-0.866-1.933-1.933c0-0.199,0.039-0.386,0.094-0.565 C9.4,11.604,9.188,12.274,9.188,13c0,2.107,1.705,3.813,3.813,3.813c2.105,0,3.813-1.705,3.813-3.813S15.105,9.188,13,9.188z"/>
	    <g>
        <path class="bbcls-1"  d="M13,7c3.313,0,6,2.686,6,6s-2.688,6-6,6c-3.313,0-6-2.686-6-6S9.687,7,13,7 M13,5	c-4.411,0-8,3.589-8,8s3.589,8,8,8s8-3.589,8-8S17.411,5,13,5L13,5z"/>
      </g>	
      <path class="bbcls-1"  d="M21.125,0H4.875C2.182,0,0,2.182,0,4.875v16.25C0,23.818,2.182,26,4.875,26h16.25 C23.818,26,26,23.818,26,21.125V4.875C26,2.182,23.818,0,21.125,0z M24,9h-6.537C18.416,10.063,19,11.461,19,13 c0,3.314-2.688,6-6,6c-3.313,0-6-2.686-6-6c0-1.539,0.584-2.938,1.537-4H2V4.875C2,3.29,3.29,2,4.875,2h16.25 C22.711,2,24,3.29,24,4.875V9z"/>
    </g>
  </svg>
-->
  <svg id="icon-inst-s" xmlns="http://www.w3.org/2000/svg" x="0" y="1020" width="510px" height="510px" viewBox="0 0 510 510" >
    <defs>
      <style>.insts-1{fill:#f8f8fa}</style>
    </defs>
	<g>
		<g id="post-instagram">
			<path class="insts-1" d="M459,0H51C22.95,0,0,22.95,0,51v408c0,28.05,22.95,51,51,51h408c28.05,0,51-22.95,51-51V51C510,22.95,487.05,0,459,0z
				 M255,153c56.1,0,102,45.9,102,102c0,56.1-45.9,102-102,102c-56.1,0-102-45.9-102-102C153,198.9,198.9,153,255,153z M63.75,459
				C56.1,459,51,453.9,51,446.25V229.5h53.55C102,237.15,102,247.35,102,255c0,84.15,68.85,153,153,153c84.15,0,153-68.85,153-153
				c0-7.65,0-17.85-2.55-25.5H459v216.75c0,7.65-5.1,12.75-12.75,12.75H63.75z M459,114.75c0,7.65-5.1,12.75-12.75,12.75h-51
				c-7.65,0-12.75-5.1-12.75-12.75v-51c0-7.65,5.1-12.75,12.75-12.75h51C453.9,51,459,56.1,459,63.75V114.75z"/>
		</g>
	</g>
	<!--
    <g>
      <path class="insts-1" d="M20,7c-0.551,0-1-0.449-1-1V4c0-0.551,0.449-1,1-1h2c0.551,0,1,0.449,1,1v2c0,0.551-0.449,1-1,1H20z"/>
      <path class="insts-1" d="M13,9.188c-0.726,0-1.396,0.213-1.973,0.563c0.18-0.056,0.367-0.093,0.564-0.093 c1.068,0,1.933,0.865,1.933,1.934c0,1.066-0.865,1.933-1.933,1.933s-1.933-0.866-1.933-1.933c0-0.199,0.039-0.386,0.094-0.565 C9.4,11.604,9.188,12.274,9.188,13c0,2.107,1.705,3.813,3.813,3.813c2.105,0,3.813-1.705,3.813-3.813S15.105,9.188,13,9.188z"/>
      <g>
        <path class="insts-1"  d="M13,7c3.313,0,6,2.686,6,6s-2.688,6-6,6c-3.313,0-6-2.686-6-6S9.687,7,13,7 M13,5	c-4.411,0-8,3.589-8,8s3.589,8,8,8s8-3.589,8-8S17.411,5,13,5L13,5z"/>
      </g>
      <path class="insts-1"  d="M21.125,0H4.875C2.182,0,0,2.182,0,4.875v16.25C0,23.818,2.182,26,4.875,26h16.25 C23.818,26,26,23.818,26,21.125V4.875C26,2.182,23.818,0,21.125,0z M24,9h-6.537C18.416,10.063,19,11.461,19,13 c0,3.314-2.688,6-6,6c-3.313,0-6-2.686-6-6c0-1.539,0.584-2.938,1.537-4H2V4.875C2,3.29,3.29,2,4.875,2h16.25 C22.711,2,24,3.29,24,4.875V9z"/>
    </g>
	-->
  </svg>
    
</svg>